<?xml version="1.0" standalone="no"?><!DOCTYPE svg PUBLIC "-//W3C//DTD SVG 1.1//EN" "http://www.w3.org/Graphics/SVG/1.1/DTD/svg11.dtd"><svg class="icon" width="18px" height="18.00px" viewBox="0 0 1024 1024" version="1.1" xmlns="http://www.w3.org/2000/svg"><path fill="#ffffff" d="M410.344 115.575h-291.417c-15.947 0-29.054 12.889-29.054 29.054v308.238c0 16.165 13.107 29.054 29.054 29.054h291.198c16.165 0 29.054-13.107 29.054-29.054v-308.238c0.219-16.165-12.889-29.054-28.836-29.054zM410.344 581.535h-291.417c-16.165 0-29.054 13.107-29.054 29.054v291.417c0 16.165 13.107 29.054 29.054 29.054h291.198c16.165 0 29.054-13.107 29.054-29.054v-291.417c0.219-15.947-12.889-29.054-28.836-29.054zM876.305 581.535h-291.198c-16.165 0-29.054 13.107-29.054 29.054v291.417c0 16.165 13.107 29.054 29.054 29.054h291.198c16.165 0 29.054-13.107 29.054-29.054v-291.417c0-15.947-12.889-29.054-29.054-29.054zM936.379 252.327l-167.772-167.772c-10.704-10.704-24.903-16.603-39.977-16.603s-29.273 5.899-39.977 16.603l-167.772 167.772c-10.704 10.704-16.603 24.903-16.603 39.977s5.899 29.273 16.603 39.977l167.772 167.772c10.704 10.704 24.903 16.603 39.977 16.603s29.273-5.899 39.977-16.603l167.772-167.772c22.064-22.064 22.064-57.89 0-79.954zM728.63 447.187l-154.883-154.883 154.883-154.883 154.883 154.883-154.883 154.883z" /></svg>