<svg t="1563527625027" class="icon" viewBox="0 0 1024 1024" version="1.1" xmlns="http://www.w3.org/2000/svg" p-id="3565" width="18" height="18"><path d="M569.7 564.5l-6.4 4.8c2.7-1.1 4.9-2.7 6.4-4.8z" p-id="3566" fill="#707070"></path><path d="M472.8 756.2c0-75.2 35.5-143.5 91.1-187-3.2 1.6-6.9 2.6-10.6 2.6H296.5c-12.7 0-23.3-10.6-23.3-23.3s10.6-23.3 23.3-23.3h256.3c12.7 0 23.3 10.6 23.3 23.3 0 6.4-2.6 11.7-6.4 15.9 37.1-27.5 82.6-43.4 131.9-43.4 61.4 0 126 19.1 167.4 58.3V101.1c0-20.7-16.4-37.1-37.1-37.1H163c-20.7 0-37.1 16.4-37.1 37.1v798.6c0 20.7 16.4 37.1 37.1 37.1h394c-53.5-41.9-84.2-107-84.2-180.6zM296.5 237.7h399.3c12.7 0 23.3 10.6 23.3 23.3 0 12.7-10.6 23.3-23.3 23.3H296.5c-12.7 0-23.3-10.6-23.3-23.3 0-12.7 10.6-23.3 23.3-23.3z m0 144h399.3c12.7 0 23.3 10.6 23.3 23.3 0 12.7-10.6 23.3-23.3 23.3H296.5c-12.7 0-23.3-10.6-23.3-23.3 0-12.7 10.6-23.3 23.3-23.3z" p-id="3567" fill="#707070"></path><path d="M711.7 553.9c-111.7 0-202.8 90.6-202.8 202.8 0 111.7 90.6 202.8 202.8 202.8 111.7 0 202.8-90.6 202.8-202.8s-91.1-202.8-202.8-202.8zM578.3 884.8c2.9-42.9 35.6-99.2 100.4-116.2-18.6-9.1-32.1-22.7-40-41.5-7.8-18.7-8.4-37.8-1.8-57 11.7-33.9 43.6-54.7 80.3-52.9 33 1.7 62.5 26.8 70.7 60.6 8.3 34-6.8 72.6-43.5 90.5 57.4 18 90.9 56.5 100.6 116.3H578.3z" p-id="3568" fill="#707070"></path></svg>