<?xml version="1.0" standalone="no"?><!DOCTYPE svg PUBLIC "-//W3C//DTD SVG 1.1//EN" "http://www.w3.org/Graphics/SVG/1.1/DTD/svg11.dtd"><svg class="icon" width="18px" height="18.00px" viewBox="0 0 1024 1024" version="1.1" xmlns="http://www.w3.org/2000/svg"><path fill="#ffffff" d="M870.912 140.8h-717.824c-40.96 0-73.728 34.304-73.728 76.8v474.112c0 42.496 37.888 78.848 78.848 78.848h472.064l22.016-56.832-518.656 2.56V195.072H890.368v520.704l-274.944-2.56 14.848 56.832h236.032c40.96 0 78.848-36.352 78.848-78.848v-474.112c-0.512-41.984-33.28-76.288-74.24-76.288zM275.968 848.896h472.064v48.128h-472.064zM696.32 636.416c-2.56-20.48-8.704-39.936-17.92-58.368-2.048-3.584-3.584-7.168-5.632-10.752-8.704-14.336-18.944-28.16-31.744-40.448-2.56-2.56-5.632-5.12-8.192-7.68-20.48-17.92-43.52-30.72-68.608-38.912 4.608-2.56 8.704-5.12 12.8-8.192 4.608-3.584 9.216-7.68 13.824-11.776 22.528-22.528 34.816-52.224 34.816-83.968s-12.288-61.44-34.816-83.968c-22.016-22.016-51.2-34.304-82.432-34.816h-3.072c-31.232 0.512-60.416 12.8-82.432 34.816-22.528 22.528-34.816 52.224-34.816 83.968s12.288 61.44 34.816 83.968c4.096 4.096 8.704 8.192 13.824 11.776 4.096 3.072 8.704 6.144 12.8 8.192-25.088 8.192-48.128 20.992-68.608 38.912-2.56 2.56-5.632 5.12-8.192 7.68-12.288 12.288-23.04 25.6-31.744 40.448-2.048 3.584-4.096 7.168-5.632 10.752-9.216 18.432-14.848 37.888-17.92 58.368-1.024 6.656 3.584 12.288 10.24 13.312h3.072c4.608-1.024 8.192-4.608 9.216-10.24 5.632-37.888 23.552-71.68 49.152-97.792 30.72-30.72 72.192-50.688 117.248-50.688 45.056 0 86.528 19.456 117.248 50.688 25.6 26.112 43.52 60.416 49.152 97.792 0.512 5.12 4.608 8.704 9.216 10.24h3.072c7.168-1.024 11.776-6.656 11.264-13.312z m-189.44-164.864h-0.512c-44.544 0-83.968-31.232-94.72-72.704 0-0.512 0-1.024-0.512-1.536-1.536-6.656-2.56-13.824-2.56-21.504 0-7.168 1.024-14.336 2.56-21.504 0-0.512 0-1.024 0.512-1.536 10.752-42.496 51.2-76.288 95.744-76.288h0.512c45.056 0 84.48 33.792 95.744 76.288 0 0.512 0 1.024 0.512 1.536 1.536 7.168 2.56 14.336 2.56 21.504s-1.024 14.336-2.56 21.504c0 0.512 0 1.024-0.512 1.536-10.752 41.472-50.688 72.192-94.72 72.704h-2.048z" /></svg>