<?xml version="1.0" standalone="no"?><!DOCTYPE svg PUBLIC "-//W3C//DTD SVG 1.1//EN" "http://www.w3.org/Graphics/SVG/1.1/DTD/svg11.dtd"><svg t="1599795580289" class="icon" viewBox="0 0 1024 1024" version="1.1" xmlns="http://www.w3.org/2000/svg" p-id="3950" width="18" height="18" xmlns:xlink="http://www.w3.org/1999/xlink"><defs><style type="text/css"></style></defs><path d="M511.744132 1023.489254c-69.065602 0-136.1322-13.49328-199.200788-40.279938-60.969634-25.787157-115.742355-62.668788-162.619008-109.745342-47.076554-46.976603-83.958185-101.649374-109.745342-162.718958-26.686709-63.168539-40.179988-130.135187-40.179989-199.200789s13.59323-136.1322 40.179989-199.200789c25.787157-60.669784 62.668788-115.542454 109.745342-162.519058s101.649374-83.958185 162.619008-109.545441c63.068589-26.686709 130.135187-40.279939 199.200788-40.279939s136.1322 13.49328 199.200789 40.279939c60.969634 25.787157 115.742355 62.568838 162.619008 109.545441 47.076554 46.976603 83.958185 101.649374 109.745342 162.718959 26.686709 63.168539 40.179988 130.135187 40.179988 199.200788 0 92.653854-25.087505 183.408654-72.463909 262.569229-8.695669 14.492782-27.28641 19.090492-41.679242 10.494773-14.392832-8.695669-18.990542-27.28641-10.494773-41.779192 41.679242-69.665303 63.76824-149.625479 63.868191-231.184859 0-60.869684-11.894076-119.840314-35.382378-175.412637-22.6887-53.773218-55.272472-101.849274-96.651863-143.328615s-89.755298-73.963163-143.428566-96.651863c-55.672273-23.488302-114.642902-35.382378-175.612537-35.382378s-119.940264 11.894076-175.612537 35.382378c-53.573318 22.6887-101.749324 55.272472-143.128715 96.651863s-73.963163 89.555397-96.651863 143.328615c-23.488302 55.572322-35.382378 114.642902-35.382377 175.412637 0 60.869684 11.894076 119.840314 35.382377 175.412636 22.6887 53.773218 55.272472 101.849274 96.651863 143.328616 41.379391 41.379391 89.755298 73.963163 143.428566 96.651862 55.572322 23.588252 114.642902 35.382378 175.612537 35.382378 90.85475 0 178.411143-26.886609 253.273858-77.761271 13.893081-9.395321 32.783672-5.897063 42.278943 7.996018 9.395321 13.893081 5.897063 32.883622-7.996018 42.278943-85.157588 57.871177-184.608057 88.355995-287.756684 88.355994zM543.799168 710.484146h-161.919357c-16.791637 0-30.384867-13.59323-30.384867-30.384867 0-16.791637 13.59323-30.384867 30.384867-30.384867h161.919357c28.185962 0 54.67277-10.894574 74.462913-30.684718 19.690193-19.790144 30.584767-46.177002 30.584768-74.163063 0-28.285912-10.794624-54.57282-30.584768-74.362964-19.690193-19.690193-45.877151-30.484817-73.663312-30.484817h-162.918859c-16.791637 0-30.384867-13.59323-30.384866-30.384867s13.59323-30.384867 30.384866-30.384867h162.818909c44.177997 0 85.657339 17.091488 116.741857 48.375907 31.084518 31.184469 48.375907 72.76376 48.375907 117.341558 0 44.277948-17.191438 85.957189-48.375907 117.241608-31.284419 31.084518-72.963661 48.275956-117.441508 48.275957zM408.86637 301.287944v216.492177l-108.146138-108.346038z" p-id="3951" fill="#1296db"></path></svg>