<?xml version="1.0" standalone="no"?><!DOCTYPE svg PUBLIC "-//W3C//DTD SVG 1.1//EN" "http://www.w3.org/Graphics/SVG/1.1/DTD/svg11.dtd"><svg class="icon" width="18px" height="18.00px" viewBox="0 0 1024 1024" version="1.1" xmlns="http://www.w3.org/2000/svg"><path fill="#ffffff" d="M774.144 487.8336c-132.7104 0-240.8448 108.544-240.8448 242.0736s108.1344 242.0736 240.8448 242.0736 240.8448-108.544 240.8448-242.0736-108.1344-242.0736-240.8448-242.0736z m0 434.5856c-105.6768 0-191.6928-86.4256-191.6928-192.512s86.016-192.512 191.6928-192.512 191.6928 86.4256 191.6928 192.512-86.016 192.512-191.6928 192.512z"  /><path fill="#ffffff" d="M533.7088 827.8016H156.0576c-36.4544 0-39.3216-29.4912-39.3216-65.9456V261.3248c0-36.4544 3.2768-65.9456 39.3216-65.9456h711.0656c36.4544 0 39.3216 29.4912 39.3216 65.9456V495.616c19.2512 11.4688 36.864 24.9856 52.8384 40.96v-104.448-210.1248c0-43.8272-35.2256-79.0528-79.0528-79.0528h-737.28c-43.8272 0-79.0528 35.2256-79.0528 79.0528v579.1744c0 43.4176 35.2256 79.0528 79.0528 79.0528h421.0688c-11.8784-15.9744-22.1184-33.5872-30.3104-52.4288z"  /><path fill="#ffffff" d="M370.2784 722.5344v-105.6768h131.4816v-52.4288H370.2784v-52.8384h105.2672v-52.4288H396.4928l79.0528-158.1056h-52.8384l-79.0528 158.1056-79.0528-158.1056H212.1728l79.0528 158.1056H212.1728v52.4288h105.2672v52.8384H185.5488v52.4288h131.8912v105.6768zM862.208 752.4352h-15.9744l-33.1776-48.3328c18.8416-9.8304 31.9488-29.4912 31.9488-52.4288 0-32.768-26.624-59.392-59.392-59.392s-59.392 26.624-59.392 59.392c0 22.9376 12.6976 42.5984 31.9488 52.4288l-33.5872 48.3328H708.608c-21.7088 0-39.3216 17.6128-39.3216 39.3216v11.4688c0 21.7088 17.6128 39.3216 39.3216 39.3216h153.1904c21.7088 0 39.3216-17.6128 39.3216-39.3216v-11.4688c0.4096-21.7088-17.2032-39.3216-38.912-39.3216z m-76.5952-126.1568c2.048 0 3.6864 0.4096 5.3248 0.8192h-11.0592c2.048-0.4096 4.096-0.8192 5.7344-0.8192z m-20.0704 126.1568l19.6608-28.672 19.6608 28.672h-39.3216z"  /></svg>