<?xml version="1.0" standalone="no"?><!DOCTYPE svg PUBLIC "-//W3C//DTD SVG 1.1//EN" "http://www.w3.org/Graphics/SVG/1.1/DTD/svg11.dtd"><svg class="icon" width="18px" height="18.00px" viewBox="0 0 1024 1024" version="1.1" xmlns="http://www.w3.org/2000/svg"><path fill="#ffffff" d="M750.933 375.467c40.96-34.134 61.44-81.92 61.44-136.534 0-102.4-81.92-184.32-184.32-184.32s-184.32 81.92-184.32 184.32c0 61.44 27.307 116.054 75.094 150.187-6.827 0-6.827 6.827-13.654 6.827-20.48 0-40.96 13.653-54.613 27.306l-75.093-75.093c-13.654-6.827-34.134-6.827-40.96 0l-68.267 68.267H150.187c-13.654 6.826-27.307 20.48-27.307 34.133v314.027c0 6.826 0 13.653 6.827 13.653 47.786 61.44 163.84 211.627 225.28 211.627 40.96 0 95.573-54.614 150.186-116.054H880.64c13.653 0 27.307-13.653 27.307-27.306V512c-6.827-34.133-54.614-75.093-157.014-136.533zM628.053 102.4c75.094 0 129.707 61.44 129.707 129.707 0 75.093-61.44 129.706-129.707 129.706-13.653 0-34.133 0-47.786-6.826h-6.827c-47.787-20.48-81.92-68.267-81.92-122.88C498.347 163.84 552.96 102.4 628.053 102.4zM354.987 935.253c-20.48 0-102.4-81.92-177.494-177.493V484.693h102.4c6.827 0 13.654 0 20.48-6.826l54.614-61.44 68.266 61.44c6.827 6.826 13.654 6.826 20.48 6.826h88.747V757.76c-75.093 95.573-157.013 177.493-177.493 177.493zM846.507 819.2H546.133c13.654-13.653 20.48-27.307 27.307-40.96 0-6.827 6.827-13.653 6.827-13.653V450.56c0-13.653-13.654-27.307-27.307-27.307 6.827-6.826 13.653-6.826 20.48-13.653 13.653 6.827 34.133 6.827 54.613 6.827s47.787-6.827 68.267-13.654c75.093 40.96 150.187 95.574 157.013 109.227v307.2h-6.826z" /></svg>